<?xml version="1.0" encoding="utf-8" ?><svg xmlns="http://www.w3.org/2000/svg" xmlns:xlink="http://www.w3.org/1999/xlink" width="1024" height="1024" viewBox="0 0 1024 1024"><path fill="#F6D4BA" transform="scale(2 2)" d="M320.359 68.2099C378.797 64.3131 428.568 116.895 423.749 175.954C420.385 217.186 390.394 253.083 349.81 262.34C346.641 263.063 341.763 263.336 339.058 264.722C337.191 267.06 335.043 270.783 333.252 273.433L271.313 366.423L257.774 387.612C248.472 402.023 239.519 411.6 219.69 408.626C214.981 407.92 209.2 405.223 204.71 403.325C169.665 473.164 77.4367 439.545 90.5371 370.916C95.1421 350.508 111.435 334.863 125.011 319.547C127.442 316.805 129.826 313.27 132.763 311.128C137.912 307.232 144.11 314.153 141.741 319.096C140.141 322.435 136.251 326.473 133.796 329.35L123.452 341.57C115.864 350.376 107.62 358.827 104.343 370.331C92.8817 410.562 134.355 442.427 170.796 422.809C180.64 417.509 189.959 407.003 193.129 396.228C187.936 391.143 183.615 388.823 179.557 382.005C170.211 366.301 176.738 356.254 181.788 341.207C184.303 333.712 187.02 326.278 189.817 318.897L225.529 221.925C228.27 214.738 231.498 206.96 233.356 199.561C222.453 160.838 226.627 126.453 256.291 96.1161C272.013 80.038 297.863 68.2481 320.359 68.2099ZM248.036 130.738C246.039 135.868 243.967 141.856 242.349 147.147C255.815 153.686 269.358 163.048 282.371 170.599L320.359 193.063C341.32 205.413 361.715 217.947 382.892 229.946C388.467 225.169 392.247 220.143 396.286 214.131C434.559 157.161 390.214 77.9046 322.441 81.625C296.828 82.8705 267.796 96.5691 254.51 119.334C262.829 124.206 271.214 128.961 279.454 133.951C292.433 141.81 281.537 149.106 277.631 147.482C269.935 144.282 255.571 135.218 248.036 130.738ZM249.093 377.389L266.203 350.95C284.756 321.991 304.164 293.8 322.441 264.722C316.585 263.443 310.523 263.32 304.469 261.995C281.132 256.884 260.257 242.731 246.382 223.347C244.953 221.35 243.104 218.041 241.454 216.353C237.041 228.862 232.08 241.884 227.469 254.365L192.484 349.003C182.282 376.915 189.719 378.695 212.71 392.346C231.326 403.399 239.981 391.645 249.093 377.389ZM363.095 243.757C365.981 242.25 368.572 240.899 371.291 239.068C366.545 235.326 357.099 230.32 351.501 226.972L259.579 172.308C254.043 168.992 246.933 163.307 240.706 161.855C236.612 226.517 306.94 270.039 363.095 243.757Z"/><path fill="#F6D4BA" transform="scale(2 2)" d="M342.529 161.982C350.234 161.049 357.247 166.51 358.23 174.208C359.213 181.906 353.798 188.954 346.106 189.987C338.344 191.029 331.217 185.553 330.225 177.785C329.233 170.016 334.754 162.924 342.529 161.982Z"/><path fill="#F6D4BA" transform="scale(2 2)" d="M305.788 141.974C313.26 140.139 320.794 144.751 322.558 152.24C324.322 159.728 319.639 167.218 312.135 168.912C304.729 170.583 297.359 165.976 295.618 158.586C293.877 151.196 298.415 143.784 305.788 141.974Z"/><path fill="#F6D4BA" transform="scale(2 2)" d="M369.648 190.173C374.877 190.419 395.527 202.993 396.676 207.744C397.74 212.144 394.725 214.257 390.75 214.907C386.151 214.834 364.319 201.984 363.725 197.845C363.147 193.819 365.577 190.747 369.648 190.173Z"/><path fill="#F6D4BA" transform="scale(2 2)" d="M259.483 278.58C271.965 279.099 263.452 291.952 260.73 297.027L246.023 324.646C243.733 328.897 242.413 333.478 237.359 334.444C224.667 333.581 233.563 320.82 236.441 315.481L251.385 287.635C253.524 283.501 254.5 279.265 259.483 278.58Z"/></svg>