<?xml version="1.0" encoding="UTF-8"?>
<!-- Generator: Adobe Illustrator 27.3.1, SVG Export Plug-In . SVG Version: 6.00 Build 0)  -->
<svg xmlns="http://www.w3.org/2000/svg" xmlns:xlink="http://www.w3.org/1999/xlink" version="1.1" id="Layer_1" x="0px" y="0px" viewBox="0 0 500 273.1" style="enable-background:new 0 0 500 273.1;" xml:space="preserve">
<g>
	<g>
		<path d="M487.9,86.8c-3.4,1.7-6.3,4.1-9.2,6.4c-0.8,0.6-1.5,1.2-2.4,1.8c-0.3,0.2-0.8,0.4-1.1,0.2c-0.2-0.1-0.3-0.7-0.4-0.9    c0.4-1.9,0.8-3.6,1.1-5.3c0.3-1.6,0.3-3.3,0.7-5c0.7-2.9,1.5-5.7,2.2-8.5c0.1-0.3,0.2-0.6,0.3-0.9c0.1-0.6,0.5-0.7,0.9-0.4    c0.5,0.3,0.9,0.6,1.2,1c2.3,2.6,4.6,5.3,6.9,8c0.2,0.2,0.4,0.5,0.5,0.7C489.5,85.3,489.3,86.1,487.9,86.8 M418.8,77.7    c-0.3,2-0.6,4.1-0.9,6c-1.1-0.5-2.5-1.4-1.8-2.7c0.3-0.7,1.6-2.4,1.9-2.6C418.2,78.3,418.5,77.9,418.8,77.7 M498.6,85.7    c0.4-0.8,0.4-1.9,0.3-2.8c-0.1-1.8-1-3.3-2-4.8c-2.6-4.3-5.4-8.5-7.9-12.9c-2.5-4.2-5-8.4-6.3-13.2c-0.8-2.8-1.6-5.3-2-8.4    c-0.7-2.1-1.7-3.9-7.5-4.7c-0.6,0-2.3-0.6-2.8-0.8c-0.8-0.4-1.4-1-2.1-1.5c-0.8-0.6-1.1-1.4-0.9-2.3c0.2-0.8,0.4-1.6,0.7-2.4    c0.5-1.5,1.3-2,2.8-1.9c1.5,0.1,1.4,0.2,2.5,0.6c0.6,0.3,1.4,1,2,1.5c0.3,0.2,0.5,0.1,0.5-0.2c-0.5-1.7-1-3.3-1.5-5    c-0.1-0.3-0.2-0.8,0-1c0.6-0.5,1.9,0.2,2.6,1c0.2,0.2,0.7,1,0.9,1c0.3,0,0.3-0.7,0.2-1c-0.1-1.4-0.5-2.7-1.5-3.8    c-0.5-0.6-1.1-1.2-1.5-1.9c-0.5-0.8-0.3-1.4,0.7-1.5c0.5-0.1,1,0,1.6-0.1c0.9-0.1,1.1-0.5,0.8-1.3c-0.5-1.2-1.2-2.2-2.4-2.8    c-0.5-0.3-1-0.5-1.5-0.9c-1-0.8-1-1.6,0-2.4c0.4-0.3,0.7-0.6,1.3-1c0.3-0.2-0.8-0.5-1.2-0.5c-0.8-0.2-1.6-0.2-2.4-0.3    c-0.4-0.1-0.8-0.1-1.2-0.2c-1-0.2-1.1-0.7-0.6-1.6c0.2-0.4,0.6-0.7,0.8-1c0.4-0.6,0.3-0.9-0.4-1c-0.8-0.1-1.7-0.1-2.5-0.2    c-0.9-0.1-1.1-0.4-0.6-1.2c0.3-0.5,0.5-1,0.8-1.5c0.1-0.3-0.2-0.5-0.5-0.2c-0.5,0.4-0.9,0.8-1.4,1.2c-0.9,0.8-1.3,0.8-2.1,0    c-0.4-0.4-0.8-1-1.2-1.5c-0.5-0.7-0.9-1.5-1.4-2.2c-0.6-0.8-1.1-0.7-1.5,0.1c-0.4,0.8-0.6,1.7-0.9,2.5c-0.4,1.2-1.2,1.4-2.1,0.5    c-0.5-0.6-0.9-1.3-1.4-1.9c-0.2-0.3-0.7-0.5-1.1-0.5C454,2,454.1,2.4,454,2.9c0,1.3-0.1,2.6-0.2,4c-0.1,1.5-0.9,1.9-2.1,1    c-0.7-0.4-1.2-1-1.8-1.5c-0.3-0.2-0.9-0.8-1.2-0.6c-0.3,0.2,0,1.2,0.1,1.7c0.2,1,0.5,2,0.7,3c0.2,1.2,0.6,2.4,0.6,3.5    c0.1,1.8-0.7,3.3-1.7,4.7c-1,1.4-2,3.1-2.9,4.6c-0.6,1-0.4,1.6,0.6,2.3c0.9,0.6,1.8,0.8,2.7,1.3c1.2,0.6,1.6,1.6,1.8,2.9    c0.1,1.4,0.4,2.8,0.8,4.2c0.3,1.2,0.9,1.6,2.2,1.6c1.1,0,2.1-0.1,3.2-0.2c1.8-0.2,2,0,2.1,1.7c0.2,1.8,0.4,3.6,0.6,5.5    c-0.1,0-0.3,0.1-0.4,0.1c-2.4,0.5-4.3,1.8-6.1,3.4c-1.4,1.3-2.1,3-2.9,4.6c-1.7,3.1-3.7,6.1-5.4,9.2c-3.1,5.6-6.1,11.2-9.3,16.8    c-0.7,1.3-1.8,2.5-2.8,3.6c-0.7,0.7-1.6,1-2.6,0.9c-1.2-0.1-2.4-0.1-3.6-0.3c-0.6-0.1-1,0.1-0.9,0.7c0,1.8-1.1,2.1-2.5,2.5    c-0.9,0.2-1.4,0.3-2.4,0.3c0.5-3.4,0.9-6.5,1.3-9.5c1.3-1.2,3.5-3.7,3.3-4.5c0-0.8-1.1-1.9-2.3-2.6c1.2-8.8,2.1-14.6,2.2-15.5    c0.1-0.4,0.3-0.8,0.6-1c2.9-2.2,5.8-4.4,8.7-6.6c0.3-0.2,0.5-0.6,0.5-0.9c0.4-2.5-0.6-4.8-0.9-7.3c0-0.2-0.3-0.4-0.4-0.4    c-0.2,0-0.4,0.1-0.5,0.3c-2.4,3.1-5.4,5.4-8.5,7.7c-5.2,3.8-10.7,7.1-16.3,10.2c-0.7,0.4-0.8,0.8-0.4,1.4c0.2,0.3,0.4,0.6,0.7,0.8    c1.2,0.8,2.5,1.5,3.6,2.4c0.7,0.5,1.4,0.5,2.1,0.1c1.8-1.1,3.5-2.2,5.3-3.3c1-0.6,1.6-0.4,1.8,0.8c0.1,0.7,0.1,1.4,0.1,2.1    c-0.1,1-0.5,4.3-1.1,8.6c-0.4,0-0.8,0.1-1,0.4c-2.2,3-7.6,9.5-8.3,12.9c-1.7,5.7,2.8,8.3,6.1,8.7c-0.8,5.5-1.4,9.6-1.4,9.7    c-0.5,3.4-0.9,6.8-1.4,10.2c-1,7.2-2,14.4-2.9,21.6c-1,7.2-4.7,35.8-5.6,42.8c-1,7.2-1.9,14.4-3,21.5c-0.8,5.1-1.8,10.9-2.9,15.9    c-0.6,2.7-2.4,3.7-4.9,4.7c-1.6,0.6-3.2,1.3-4.8,2c-1.5,0.6-3,1.1-4.4,1.7c-0.5,0.2-1,0.5-0.9,1.2c0.2,0.6,0.7,0.9,1.3,0.9    c6.3,0.6,12.6,1.3,18.8,1.9c2.6,0.3,5.2,0.4,7.8,0.6c1.5,0.1,3.1,0.3,3.2-0.4c0.2-0.5-4.3-4.1-5.5-4.9c-3-2-4.9-3.2-7.9-5.1    c0,0,10.7-77.1,17.4-124.6c1.6-0.3,3.2-0.7,4.7-1c0,0.3,0,0.6-0.1,0.9c-0.1,1.6-0.3,3.3,0.1,4.9c0.2,0.7,0.6,1.1,1.2,1.1    c1.9,0.2,3.8,0.4,5.6,0.6c2.3,0.2,4.2-0.6,5.8-2.2c0.3-0.3,0.6-0.7,0.9-1c2.2-2.6,4.5-6.6,6-9.7c2.6-5.4,4.9-9,9.5-13.4    c0.4-0.4,0.8-0.9,1.3-1.2c0.4-0.2,1-0.3,1.3-0.2c0.3,0.2,0.6,0.8,0.6,1.2c0.1,1.6,0,3.3,0,4.9c0,5.5,0,11-0.1,16.4    c-0.1,5.5-1.7,10.5-4.9,15c-1.5,2.2-3,4.4-4.3,6.7c-1.2,2.2-2.1,4.6-2.1,7.2c0,1.9,0.9,3.4,2.6,4.3c0.3,0.2,0.6,0.5,0.7,0.8    c0.6,1.2,1,2.4,1.6,3.5c1.5,2.7,2.1,5.6,2.4,8.6c0.4,3.3,0.5,6.7,1.1,10c1.5,8.3,3.1,16.5,4.7,24.7c0.9,5,1.7,10,1.6,15    c0,3.2-0.3,6.4-0.5,9.7c-0.5,6.3-1.1,12.6-1.7,18.9c-0.4,4.3-0.9,8.6-1.4,12.9c-0.2,1.3-0.6,2.5-1,3.7c-0.3,0.9-1,1.3-1.9,1.5    c-0.6,0.1-1.2,0.1-1.8,0.2c-2.5,0.5-5.1,0.9-7.6,1.4c-0.5,0.1-1.2,0.7-1.2,1.1c-0.1,0.4,0.4,1.2,0.9,1.4c1.4,0.7,2.8,1.4,4.3,1.7    c4.3,0.9,8.7,0.7,13,0c2-0.3,3.9-0.9,5.8-1.4c0.7-0.2,1,0,1.1,0.7c0,0.4,0.1,0.8,0.2,1.2c0.2,1.6-0.2,3.1-1.2,4.4    c-1.3,1.7-2.8,3.3-4,5c-0.8,1.2-1.6,2.6-2,4c-0.6,1.9,0.3,3.2,2.3,3.5c0.7,0.1,1.6,0,2.2-0.4c1.3-0.8,2.6-1.6,3.7-2.6    c4.1-4,7.8-10,11.3-14.6c0.2-0.3,0.4-0.5,0.5-0.8c0.1-0.2,0.4-2.7,0.3-2.9c0-0.1-2.1-7.6-2.8-9.5c-0.7-2-0.9-4.2-1.4-6.3    c-0.7-3-1.7-6-2.4-9.1c-1-4.5-0.9-9.1-0.6-13.7c0.2-3,0.7-5.9,0.5-8.9c-0.2-6.2-0.7-12.3-1.2-18.5c-0.4-5.5-1.2-10.9-1.5-16.4    c-0.5-7.2-0.7-14.4-1-21.6c0-0.7,0-1.4,0-2.1c0.5,0.1,0.2,0.1,0.6,0.1c1.7,0.2,2.2,0,2.8-1.7c0.5-1.4,0.9-2.8,1-4.3    c0.4-3.4,1.8-11.8,1.9-12.3c0.2-2,0.4-4,0.5-6c0-0.6,0.1-1,0.6-1.3c1.7-1.1,4.2-2.2,5.9-3.3c2.2-1.4,4.5-2.6,6.6-4    C494.5,93.2,496.8,89.6,498.6,85.7"></path>
		<path d="M20.5,136.5c4.4,2.8,12.5,6.8,23.7,6.9c3.3,0,6.8-0.3,10.6-1.1c5.4-1.1,10-3.1,17.6-7.8l0.8-0.5l-5.9-28.9l-1.8,3    c-3.7,6.3-8.9,10.1-15.5,11.4c-5.2,1.1-10.9,0.2-15-2.3c-4.4-2.8-7.9-7.9-9-13.4c-1.2-6,0-12.1,3.4-16.7c3-4.1,7-6.6,12.5-7.7    c6.9-1.4,13.2,0.2,18.7,4.8l2.9,2.4l-6-29.4l-0.9-0.2c-7.4-1.4-14.2-1.5-20-0.3C25,59.3,14.6,66.3,8.2,76.1    C2,85.6-0.3,97.9,1.9,109C4.2,120,11.1,130.2,20.5,136.5"></path>
		<path d="M109.4,228.8l0.9-0.4l-2.6-29.4l-2.1,2.8c-4.4,5.8-10,9-16.7,9.6c-5.3,0.4-10.9-1.1-14.6-4c-4.1-3.2-7-8.7-7.5-14.3    c-0.5-6.1,1.4-12,5.2-16.3c3.5-3.7,7.7-5.7,13.3-6.2c7-0.6,13.1,1.7,18.1,6.9l2.6,2.7l-2.6-29.9l-0.9-0.3    c-7.2-2.2-13.9-3-19.9-2.5c-11.9,1-23.1,6.8-30.5,15.8c-7.2,8.8-11,20.7-10,32c1,11.2,6.7,22.2,15.4,29.4    c5,4.1,15.6,10.7,31.5,9.9c0.6,0,1.3-0.1,1.9-0.1C96.5,234,101.3,232.5,109.4,228.8"></path>
		<path d="M121.5,117.7c-3,3-6.9,4.5-11.6,4.5c-4.6,0-8.6-1.6-11.8-4.6c-2.1-2-4.6-5.5-4.6-10.7c0-4.4,1.7-8.5,4.6-11.4    c2.9-2.9,7.2-4.6,11.7-4.6c4.3,0,8.6,1.7,11.7,4.6c3,2.9,4.7,6.9,4.7,11.1C126.2,110.7,124.5,114.8,121.5,117.7 M109.9,140.7    c9.9,0,19.2-3.5,25.7-9.7c6.5-6.3,10.3-15.1,10.3-24.4c0-9.4-3.7-18.3-10.3-24.5c-6.4-6.2-15.8-9.7-25.7-9.7S90.6,76,84.2,82.2    c-6.5,6.2-10.3,15.1-10.3,24.5c0,9.2,3.7,18.1,10.3,24.4C90.6,137.2,100,140.7,109.9,140.7"></path>
	</g>
	<polygon points="155.8,199.3 136.5,197.9 137,189.8 155.3,191.1 156.5,174.6 138.2,173.4 138.7,165.6 158.1,167 159.2,150.5    121,147.8 116.4,213.1 154.6,215.7  "></polygon>
	<polygon points="186.9,144.4 168,145.7 172.6,210.9 211,208.2 209.8,191.8 190.3,193.1  "></polygon>
	<polygon points="255.6,190.6 236.3,187.9 243.1,139.5 224.3,136.9 215.2,201.6 253.3,207  "></polygon>
	<path d="M297,185.1l-10.1,0.9l3.7-15.2L297,185.1z M308.4,209.8l20.2-1.8l-29.8-62.1l-0.4-0.8l-19.5,1.7l-19.3,67.3l20-1.8   l3.3-10.9l20.8-1.8L308.4,209.8z"></path>
	<g>
		<path d="M350.3,170.3l-1.7,0.4l-2.7-12.5l1.7-0.4c3-0.6,5.6-0.4,7.2,0.6c1.2,0.7,2.2,2.2,2.6,3.8c0.3,1.5,0,3.4-0.7,4.5    C355.4,168.6,352.4,169.8,350.3,170.3 M356.3,207.1l-4.3-20.4l17.6,17.6l23.2-4.9l-25.1-21.5c2.5-1.4,4.8-3.4,6.2-5.6    c2.7-4,3.5-9.4,2.4-14.8c-1.2-5.6-4.5-10.7-8.7-13.5c-6.1-4.2-12.7-3.4-17.2-2.4l-26.1,5.6l13.6,64L356.3,207.1z"></path>
	</g>
	<polygon points="354.3,63.1 331.6,61.2 352.4,97.5 349.7,128.4 368.7,130 371.4,99.2 399,67 376,65 364,80.1  "></polygon>
	<g>
		<path d="M322.4,99.9c0.6,6.4-1.5,10.2-3.3,12.2c-3.4,4-8.2,4.9-12.4,5.2l-1.9,0.2l-2.8-32.2l2.6-0.2c4-0.4,8.7-0.3,12.3,2.5    C319.9,90,321.9,94.5,322.4,99.9 M341.9,98.2c-0.9-9.9-4.6-17.6-11.2-22.9c-6.8-5.5-15.5-7.7-26.5-6.7l-22.6,2l5.7,65.1l24-2.1    c13.6-1.2,21.4-8.8,24.1-12C340.7,115.2,342.8,107.8,341.9,98.2"></path>
	</g>
	<polygon points="236.2,130.3 274.5,131.6 275.1,115.1 255.7,114.4 256,106.3 274.3,107 274.9,90.5 256.6,89.8 256.9,82.1    276.2,82.8 276.8,66.3 238.5,64.9  "></polygon>
	<polygon points="166.8,136.1 168.8,103.5 184.5,134.6 192.8,133.8 203.5,100.5 210.4,132.3 229.3,130.6 213.9,66.4 195.6,68    185.9,100 171.4,70.1 153.3,71.7 148,137.8  "></polygon>
</g>
</svg>
